<?xml version="1.0" encoding="UTF-8" standalone="no"?>
<!-- Created with Inkscape (http://www.inkscape.org/) -->

<svg
   xmlns:dc="http://purl.org/dc/elements/1.1/"
   xmlns:cc="http://creativecommons.org/ns#"
   xmlns:rdf="http://www.w3.org/1999/02/22-rdf-syntax-ns#"
   xmlns:svg="http://www.w3.org/2000/svg"
   xmlns="http://www.w3.org/2000/svg"
   xmlns:sodipodi="http://sodipodi.sourceforge.net/DTD/sodipodi-0.dtd"
   xmlns:inkscape="http://www.inkscape.org/namespaces/inkscape"
   width="324.82629mm"
   height="173.55429mm"
   viewBox="0 0 1150.9593 614.95616"
   id="svg4156"
   version="1.1"
   inkscape:version="0.92.1 unknown"
   sodipodi:docname="top_fig.svg"
   inkscape:export-filename="/home/jdily/Desktop/project/cubeNet/fig_materials/top/top_fig.png"
   inkscape:export-xdpi="96"
   inkscape:export-ydpi="96">
  <defs
     id="defs4158" />
  <sodipodi:namedview
     id="base"
     pagecolor="#ffffff"
     bordercolor="#666666"
     borderopacity="1.0"
     inkscape:pageopacity="0.0"
     inkscape:pageshadow="2"
     inkscape:zoom="0.98994949"
     inkscape:cx="723.87689"
     inkscape:cy="386.08943"
     inkscape:document-units="px"
     inkscape:current-layer="layer1"
     showgrid="false"
     inkscape:window-width="1920"
     inkscape:window-height="993"
     inkscape:window-x="0"
     inkscape:window-y="24"
     inkscape:window-maximized="1"
     fit-margin-top="1"
     fit-margin-right="1"
     fit-margin-bottom="1"
     fit-margin-left="1" />
  <metadata
     id="metadata4161">
    <rdf:RDF>
      <cc:Work
         rdf:about="">
        <dc:format>image/svg+xml</dc:format>
        <dc:type
           rdf:resource="http://purl.org/dc/dcmitype/StillImage" />
        <dc:title></dc:title>
      </cc:Work>
    </rdf:RDF>
  </metadata>
  <g
     inkscape:label="Layer 1"
     inkscape:groupmode="layer"
     id="layer1"
     transform="translate(-144.31383,-144.24892)">
    <g
       id="g4910"
       transform="matrix(5.8785905,0,0,5.8785905,128.80784,125.34473)">
      <path
         id="path4858"
         d="m 42.33886,44.5 a 39.317524,39.317524 0 0 0 6.12412,20.023539"
         inkscape:connector-curvature="0"
         style="fill:none;stroke:#f2a86b;stroke-width:0.5" />
      <path
         id="path4860"
         d="m 42.33886,44.5 a 39.317524,39.317524 0 0 0 6.12412,20.023539"
         inkscape:connector-curvature="0"
         style="fill:none;stroke:#f2a86b;stroke-width:0.5" />
      <path
         id="path4862"
         d="M 48.46298,64.523539 48.5,64.5"
         inkscape:connector-curvature="0"
         style="fill:none;stroke:#6bad89;stroke-width:0.5" />
      <path
         id="path4864"
         d="M 62.5,44.5 H 42.33886"
         inkscape:connector-curvature="0"
         style="fill:none;stroke:#6bad89;stroke-width:0.5" />
      <path
         id="path4866"
         d="M 62.661019,44.504411 62.5,44.5"
         inkscape:connector-curvature="0"
         style="fill:none;stroke:#6bad89;stroke-width:0.5" />
      <path
         id="path4868"
         d="M 56.537021,64.523538 A 39.317518,39.317518 0 0 0 62.661019,44.504411"
         inkscape:connector-curvature="0"
         style="fill:none;stroke:#f2a86b;stroke-width:0.5" />
      <path
         id="path4870"
         d="m 56.5,64.5 0.03702,0.02354"
         inkscape:connector-curvature="0"
         style="fill:none;stroke:#6bad89;stroke-width:0.5" />
      <path
         id="path4872"
         d="m 56.5,98.5 v -34"
         inkscape:connector-curvature="0"
         style="fill:none;stroke:#6bad89;stroke-width:0.5" />
      <path
         id="path4874"
         d="m 48.5,98.5 h 8"
         inkscape:connector-curvature="0"
         style="fill:none;stroke:#6bad89;stroke-width:0.5" />
      <path
         id="path4876"
         d="m 48.5,64.5 v 34"
         inkscape:connector-curvature="0"
         style="fill:none;stroke:#6bad89;stroke-width:0.5" />
      <path
         id="path4878"
         d="m 40.5,40.5 v 4"
         inkscape:connector-curvature="0"
         style="fill:none;stroke:#6bad89;stroke-width:0.5" />
      <path
         id="path4880"
         d="m 40.5,44.5 h 24"
         inkscape:connector-curvature="0"
         style="fill:none;stroke:#6bad89;stroke-width:0.5" />
      <path
         id="path4882"
         d="m 64.5,44.5 v -4"
         inkscape:connector-curvature="0"
         style="fill:none;stroke:#6bad89;stroke-width:0.5" />
      <path
         id="path4884"
         d="m 64.5,40.5 h -24"
         inkscape:connector-curvature="0"
         style="fill:none;stroke:#6bad89;stroke-width:0.5" />
      <path
         id="path4886"
         d="M 51.549573,19.444967 C 41.617031,22.004912 39.748132,35.301135 48.590107,40.5"
         inkscape:connector-curvature="0"
         style="fill:none;stroke:#a86bf2;stroke-width:0.5" />
      <path
         id="path4888"
         d="m 48.590107,40.5 h 7.801191"
         inkscape:connector-curvature="0"
         style="fill:none;stroke:#6bad89;stroke-width:0.5" />
      <path
         id="path4890"
         d="m 56.391298,40.5 c 8.175953,-8.16114 3.034487,-8.259791 -0.545255,-17.539265"
         inkscape:connector-curvature="0"
         style="fill:none;stroke:#a86bf2;stroke-width:0.5" />
      <path
         id="path4892"
         d="m 55.846043,22.960735 -1.695516,6.650396"
         inkscape:connector-curvature="0"
         style="fill:none;stroke:#6bad89;stroke-width:0.5" />
      <path
         id="path4894"
         d="M 54.150527,29.611131 C 51.725138,26.047462 50.791512,23.688502 51.549573,19.444967"
         inkscape:connector-curvature="0"
         style="fill:none;stroke:#a86bf2;stroke-width:0.5" />
      <path
         id="path4896"
         d="M 56.79083,4.049805 C 40.570992,10.704834 26.524303,25.847378 45.894696,40.5"
         inkscape:connector-curvature="0"
         style="fill:none;stroke:#a86bf2;stroke-width:0.5" />
      <path
         id="path4898"
         d="M 45.894696,40.5 H 58.268551"
         inkscape:connector-curvature="0"
         style="fill:none;stroke:#6bad89;stroke-width:0.5" />
      <path
         id="path4900"
         d="M 58.268551,40.5 C 72.955089,30.097055 64.337867,24.823736 62.213233,9.233607"
         inkscape:connector-curvature="0"
         style="fill:none;stroke:#a86bf2;stroke-width:0.5" />
      <path
         id="path4902"
         d="m 62.213233,9.233607 -3.178578,5.866234"
         inkscape:connector-curvature="0"
         style="fill:none;stroke:#6bad89;stroke-width:0.5" />
      <path
         id="path4904"
         d="M 59.034655,15.099841 A 12.389122,12.389122 0 0 1 56.79083,4.049805"
         inkscape:connector-curvature="0"
         style="fill:none;stroke:#f2a86b;stroke-width:0.5" />
    </g>
    <g
       id="g5006"
       transform="matrix(5.9848024,0,0,5.9848024,-46.243191,140.76371)">
      <g
         style="display:inline"
         inkscape:label="outer"
         id="layer1-6" />
      <g
         inkscape:label="inner"
         id="layer3">
        <g
           transform="translate(-4.0677966,-3.2542373)"
           id="g4153">
          <path
             inkscape:connector-curvature="0"
             d="m 42.5,44.5 v 1 1 1 1 1 1 h 1 v 1 1 1 1 1 h 1 v 1 1 1 h 1 1 v 1 1 1 h 1 v 1 1 1 h 1 v 1 1 1 1 1 1 1 1 1 1 1 1 1 1 1 1 1 1 1 1 1 1 1 1 1 1 1 1 1 1 1 1 1 1 h 1 1 1 1 1 1 1 1 v -1 -1 -1 -1 -1 -1 -1 -1 -1 -1 -1 -1 -1 -1 -1 -1 -1 -1 -1 -1 -1 -1 -1 -1 -1 -1 -1 -1 -1 -1 -1 -1 -1 -1 h 1 v -1 -1 -1 h 1 v -1 -1 -1 h 1 1 v -1 -1 -1 h 1 v -1 -1 -1 -1 -1 h 1 v -1 -1 -1 -1 -1 -1 h -1 -1 -1 -1 -1 -1 -1 -1 -1 -1 -1 -1 -1 -1 -1 -1 -1 -1 -1 -1"
             id="path6"
             style="fill:#ceb1a1;fill-opacity:1" />
          <path
             inkscape:connector-curvature="0"
             d="m 40.5,40.5 v 1 1 1 1 h 1 1 1 1 1 1 1 1 1 1 1 1 1 1 1 1 1 1 1 1 1 1 1 1 v -1 -1 -1 -1 h -1 -1 -1 -1 -1 -1 -1 -1 -1 -1 -1 -1 -1 -1 -1 -1 -1 -1 -1 -1 -1 -1 -1 -1"
             id="path8"
             style="fill:#8e675c;fill-opacity:1" />
          <path
             style="display:inline;fill:#ff754c;fill-opacity:1"
             d="m 55.5,4.5 v 1 h -1 -1 -1 v 1 h -1 -1 v 1 h -1 v 1 h -1 -1 v 1 h -1 v 1 h -1 -1 v 1 h -1 v 1 h -1 v 1 h -1 v 1 h -1 v 1 1 h -1 v 1 h -1 v 1 1 h -1 v 1 1 1 h -1 v 1 1 1 1 1 1 1 h 1 v 1 1 1 h 1 v 1 h 1 v 1 h 1 v 1 h 1 v 1 h 1 v 1 h 1 v 1 h 1 v 1 h 1 v 1 h 1 1 1 1 1 1 1 1 1 1 1 1 1 v -1 h 1 v -1 h 1 1 v -1 h 1 v -1 h 1 v -1 h 1 v -1 h 1 v -1 -1 -1 h 1 v -1 -1 -1 -1 -1 -1 -1 -1 h -1 v -1 -1 -1 h -1 v -1 -1 -1 h -1 v -1 -1 -1 h -1 v -1 -1 -1 -1 h -1 v 1 h -1 v 1 h -1 v 1 1 h -1 v -1 h -1 v -1 -1 h -1 v -1 -1 -1 -1 -1 -1 -1 h -1"
             id="path12"
             inkscape:connector-curvature="0" />
          <path
             inkscape:connector-curvature="0"
             style="fill:#ffb5a4;fill-opacity:1"
             d="m 50.5,18.5 v 1 h -1 v 1 h -1 v 1 h -1 v 1 h -1 v 1 h -1 v 1 h -1 v 1 1 h -1 v 1 h -1 v 1 1 1 1 1 1 1 h 1 1 v 1 1 h 1 v 1 h 1 v 1 1 h 1 v 1 h 1 1 1 1 1 1 1 1 1 v -1 h 1 v -1 h 1 v -1 h 1 v -1 h 1 v -1 -1 -1 -1 -1 -1 h -1 v -1 h -1 v -1 -1 h -1 v -1 -1 h -1 v -1 h -1 v 1 1 h -1 v 1 1 1 1 h -1 v -1 h -1 v -1 -1 h -1 v -1 -1 -1 -1 -1 -1 -1 -1 -1 h -1"
             id="path10" />
        </g>
      </g>
    </g>
    <g
       id="g5069"
       transform="matrix(5.9570685,0,0,5.9570685,321.51529,124.3345)">
      <path
         style="fill:#ceb1a1;fill-opacity:1"
         id="path6-0"
         d="m 42.33886,44.5 v 0 a 39.317524,39.317524 0 0 0 6.12412,20.023539 L 48.5,64.5 v 34 h 8 v -34 l 0.03702,0.02354 A 39.317518,39.317518 0 0 0 62.661019,44.504411 L 62.5,44.5 Z"
         inkscape:connector-curvature="0" />
      <path
         style="fill:#8e675c;fill-opacity:1"
         id="path8-8"
         d="m 40.5,40.5 v 0 4 h 24 v -4 z"
         inkscape:connector-curvature="0" />
      <path
         style="fill:#ff754c;fill-opacity:1"
         id="path10-3"
         d="m 56.79083,4.049805 v 0 C 40.570992,10.704834 26.524303,25.847378 45.894696,40.5 H 58.268551 C 72.955089,30.097055 64.337867,24.823736 62.213233,9.233607 l -3.178578,5.866234 A 12.389122,12.389122 0 0 1 56.79083,4.049805 Z"
         inkscape:connector-curvature="0" />
      <path
         style="fill:#ffb5a4;fill-opacity:1"
         sodipodi:nodetypes="ccccccc"
         inkscape:connector-curvature="0"
         id="path9"
         d="m 51.549573,19.444967 v 0 C 41.617031,22.004912 39.748132,35.301135 48.590107,40.5 h 7.801191 c 8.175953,-8.16114 3.034487,-8.259791 -0.545255,-17.539265 l -1.695516,6.650396 C 51.725138,26.047462 50.791512,23.688502 51.549573,19.444967 Z" />
    </g>
    <text
       xml:space="preserve"
       style="font-style:normal;font-weight:normal;line-height:0%;font-family:sans-serif;letter-spacing:0px;word-spacing:0px;fill:#000000;fill-opacity:1;stroke:none;stroke-width:1px;stroke-linecap:butt;stroke-linejoin:miter;stroke-opacity:1"
       x="219.49062"
       y="745.9325"
       id="text4171"><tspan
         sodipodi:role="line"
         id="tspan4173"
         x="219.49062"
         y="745.9325"
         style="font-size:35.04876328px;line-height:1.25">(a)</tspan></text>
    <text
       id="text4185"
       y="742.14441"
       x="410.72607"
       style="font-style:normal;font-weight:normal;line-height:0%;font-family:sans-serif;letter-spacing:0px;word-spacing:0px;fill:#000000;fill-opacity:1;stroke:none;stroke-width:1px;stroke-linecap:butt;stroke-linejoin:miter;stroke-opacity:1"
       xml:space="preserve"><tspan
         y="742.14441"
         x="410.72607"
         id="tspan4187"
         sodipodi:role="line"
         style="font-size:35.04876328px;line-height:1.25">(b)</tspan></text>
    <text
       xml:space="preserve"
       style="font-style:normal;font-weight:normal;line-height:0%;font-family:sans-serif;letter-spacing:0px;word-spacing:0px;fill:#000000;fill-opacity:1;stroke:none;stroke-width:1px;stroke-linecap:butt;stroke-linejoin:miter;stroke-opacity:1"
       x="609.74994"
       y="746.87952"
       id="text4189"><tspan
         sodipodi:role="line"
         id="tspan4191"
         x="609.74994"
         y="746.87952"
         style="font-size:35.04876328px;line-height:1.25">(c)</tspan></text>
    <g
       id="g3792"
       transform="matrix(5.9978773,0,0,5.9978773,507.04628,118.01349)">
      <path
         id="path3784"
         d="m 63.2,45.2 c -0.4,5.4 -0.9,10.7 -4,15.5 -1.6,2.9 -2.4,6.2 -2.2,9.6 0.2,8.3 -0.1,16.7 0.1,25 0.1,3.2 -1.1,3.9 -4.1,3.9 -3,0 -4.1,-0.8 -4.1,-3.9 0.2,-8.3 0,-16.7 0.1,-25 0,-4.1 -1.2,-8.1 -3.3,-11.6 -2.3,-4 -2.6,-8.8 -2.8,-13.4 6.5,-2.9 13.8,-2.9 20.3,-0.1 z"
         class="st0"
         inkscape:connector-curvature="0"
         style="fill:#cdb0a0" />
      <path
         id="path3786"
         d="M 46.1,40.9 C 43.5,38 40.1,35.4 38.4,32 35.1,25.5 37.9,19.4 42.3,14.5 46.2,10.2 50.9,6.7 57,5.4 c 0.3,3.3 -0.6,6.7 2.4,9.1 l 2.8,-3 c 0.4,0.1 0.8,0.2 0.9,0.3 1,3.5 2,7.1 3.1,10.7 2.4,7.8 0.9,12.2 -5.8,16.7 -0.5,0.4 -0.9,1 -1.2,1.5 -0.5,0.6 -1.3,0.7 -1.9,0.4 -0.5,-0.7 -0.5,-1.7 0.1,-2.3 3.5,-3.8 2.4,-7.5 -0.3,-11.2 -1.3,0.7 -0.8,3.9 -3.1,3 -3.4,-1.3 -2.7,-4.9 -3.3,-7.7 -6,2.4 -7.8,7.5 -4.5,12.9 1,1.6 2.9,2.9 1.9,5.3 -0.8,0.6 -1.6,0.4 -2,-0.2 z"
         class="st1"
         inkscape:connector-curvature="0"
         style="fill:#fe754c" />
      <path
         id="path3788"
         d="m 57.1,40.9 h 2 c 1.1,0 2.3,0.1 3.4,0.1 1.1,0 2.4,-0.4 2.5,1.4 0.1,1.4 0,2.6 -1.9,2.7 H 43 c -1.8,0 -2.2,-1.3 -1.8,-2.6 0.8,-2.9 3.3,-0.8 4.9,-1.6 h 2 c 2.6,-1.9 6.3,-1.9 9,0 z"
         class="st2"
         inkscape:connector-curvature="0"
         style="fill:#8d675c" />
      <path
         id="path3790"
         d="m 57.1,40.9 h -9 c -1.4,-2.8 -4.4,-4.6 -5,-7.8 -0.9,-5.2 2.4,-9.9 8.5,-12.3 0.9,1.7 0.2,3.5 0.4,5.3 0.1,1.7 1,3.3 2.3,4.4 1.3,-1.4 0.3,-3.7 2.2,-4.6 5.8,7 6.6,8.8 0.6,15 z"
         class="st3"
         inkscape:connector-curvature="0"
         style="fill:#feb4a3" />
    </g>
    <text
       xml:space="preserve"
       style="font-style:normal;font-weight:normal;font-size:37.5px;line-height:1.25;font-family:sans-serif;letter-spacing:0px;word-spacing:0px;fill:#000000;fill-opacity:1;stroke:none;stroke-width:0.9375"
       x="799.75024"
       y="745.5733"
       id="text3819"><tspan
         sodipodi:role="line"
         id="tspan3817"
         x="799.75024"
         y="745.5733"
         style="stroke-width:0.9375">(d)</tspan></text>
    <g
       id="g3960"
       transform="matrix(5.9146791,0,0,5.9146791,699.81678,124.98217)">
      <path
         id="path4"
         d="M 37.18,24.13 C 39.02,14.59 48.21,8.94 56.35,4.9 c 0.67,3.47 1.4,6.93 2.32,10.34 1.32,-1.45 2.64,-2.9 3.96,-4.34 1.6,6.32 3.85,12.54 4.35,19.08 -0.43,4.77 -4.44,8.3 -8.06,11.02 -0.3,0.02 -0.9,0.06 -1.2,0.08 2.75,-5.39 2.69,-11.62 -0.28,-16.98 -1.22,2.31 -2.41,4.64 -3.57,6.99 -0.94,-3.84 -1.72,-7.71 -2.54,-11.57 -2.94,2.62 -6.53,5.07 -7.76,9 -1.42,4.87 1.87,8.79 4.19,12.59 -0.4,-0.02 -1.2,-0.07 -1.6,-0.09 -4.85,-4.27 -10.48,-9.61 -8.98,-16.89 z"
         inkscape:connector-curvature="0"
         style="fill:#ff754c" />
      <path
         id="path6-3"
         d="m 43.57,28.52 c 1.23,-3.93 4.82,-6.38 7.76,-9 0.82,3.86 1.6,7.73 2.54,11.57 1.16,-2.35 2.35,-4.68 3.57,-6.99 2.97,5.36 3.03,11.59 0.28,16.98 -3.33,0.06 -6.64,0.11 -9.96,0.03 -2.32,-3.8 -5.61,-7.72 -4.19,-12.59 z"
         inkscape:connector-curvature="0"
         style="fill:#ffb4a3" />
      <path
         id="path8-6"
         d="m 41,40.78 c 1.72,0.07 3.44,0.13 5.16,0.24 0.4,0.02 1.2,0.07 1.6,0.09 3.32,0.08 6.63,0.03 9.96,-0.03 0.3,-0.02 0.9,-0.06 1.2,-0.08 1.51,-0.08 4.52,-0.25 6.02,-0.33 0.04,1.46 0.07,2.93 0.11,4.39 -0.43,0 -1.3,-0.01 -1.73,-0.01 -6.87,-0.02 -13.74,-0.04 -20.61,-0.01 -0.44,0 -1.32,0 -1.75,0 0.01,-1.42 0.03,-2.84 0.04,-4.26 z"
         inkscape:connector-curvature="0"
         style="fill:#8d675c" />
      <path
         id="path10-7"
         d="m 42.71,45.04 c 6.87,-0.03 13.74,-0.01 20.61,0.01 -0.86,6.54 -2.97,12.76 -5.18,18.93 C 56.23,75.53 57.02,87.33 57,99 c -2.67,0 -5.33,0 -7.99,0 0.07,-8.34 0.2,-16.68 0.05,-25.02 1.1,-10.28 -6.1,-18.8 -6.35,-28.94 z"
         inkscape:connector-curvature="0"
         style="fill:#cdb1a1" />
    </g>
    <text
       xml:space="preserve"
       style="font-style:normal;font-weight:normal;font-size:37.5px;line-height:1.25;font-family:sans-serif;letter-spacing:0px;word-spacing:0px;fill:#000000;fill-opacity:1;stroke:none;stroke-width:0.9375"
       x="990.07147"
       y="745.03577"
       id="text3819-5"
       inkscape:transform-center-y="7.5761442"><tspan
         sodipodi:role="line"
         id="tspan3817-3"
         x="990.07147"
         y="745.03577"
         style="stroke-width:0.9375">(e)</tspan></text>
    <g
       transform="matrix(5.9162895,0,0,5.9162895,836.17552,60.971997)"
       id="g4197">
      <path
         style="fill:#ff754b;fill-opacity:1"
         d="m 66,16.5 q 0.25,-0.25 0.5,-0.25 0.25,0 0.375,0.375 L 67,17 66.625,17.125 66.25,17.25 66.53125,17.15625 66.8125,17.0625 66.625,17.125 q -0.1875,0.0625 -0.3125,0.1875 l -0.125,0.125 0.0625,-0.0625 0.0625,-0.0625 -0.296875,-0.296875 -0.296875,-0.296875 -0.07813,0.04687 -0.07813,0.04687 0.15625,-0.09375 Q 65.875,16.625 66,16.5 L 66.125,16.375 65.9375,16.5625 65.75,16.75 66,16.5"
         id="path4201"
         inkscape:connector-curvature="0" />
      <path
         style="fill:#ff744c;fill-opacity:1"
         d="M 63,17.5 Q 63.25,17.25 63.625,17.125 64,17 64.5,17 H 65 v 0.5 q 0,0.5 -0.5,0.5 -0.5,0 -0.875,0.125 -0.375,0.125 -0.5,0.5 Q 63,19 62.5,19 62,19 61.625,19.125 L 61.25,19.25 61.53125,19.15625 61.8125,19.0625 61.625,19.125 q -0.1875,0.0625 -0.3125,0.1875 l -0.125,0.125 L 61.25,19.375 61.3125,19.3125 61.03125,19.03125 60.75,18.75 61,18.5 Q 61.25,18.25 61.625,18.125 62,18 62.375,17.875 62.75,17.75 63,17.5 M 60.9375,18.5625 60.75,18.75 60.6875,18.8125 60.625,18.875 60.75,18.75 Q 60.875,18.625 61,18.5 l 0.125,-0.125 -0.1875,0.1875"
         id="path4203"
         inkscape:connector-curvature="0" />
      <path
         style="fill:#ff754c;fill-opacity:1"
         d="M 65,17.5 V 17 L 65.375,16.875 65.75,16.75 65.46875,16.84375 65.1875,16.9375 65.375,16.875 q 0.1875,-0.0625 0.34375,-0.15625 L 65.875,16.625 l -0.07813,0.04687 -0.07813,0.04687 0.296875,0.296875 0.296875,0.296875 0.0625,-0.0625 0.0625,-0.0625 -0.125,0.125 q -0.125,0.125 -0.1875,0.3125 L 66.0625,17.8125 66.15625,17.53125 66.25,17.25 66.125,17.625 Q 66,18 66.5,18 H 67 v 0.5 q 0,0.5 0,1 V 20 H 66.5 Q 66,20 66,20.5 66,21 66.5,21 H 67 v 0.5 q 0,0.5 0.125,0.875 L 67.25,22.75 67.15625,22.46875 67.0625,22.1875 67.125,22.375 q 0.0625,0.1875 0.15625,0.34375 L 67.375,22.875 67.32813,22.79687 67.28126,22.71874 67.015635,22.984365 Q 66.75,23.25 66.875,23.625 L 67,24 v 0.5 q 0,0.5 0.375,0.625 0.375,0.125 0.640625,-0.140625 l 0.265625,-0.265625 -0.04687,-0.07813 -0.04687,-0.07813 0.09375,0.15625 Q 68.375,24.875 68.5,25 L 68.625,25.125 68.4375,24.9375 68.25,24.75 68.5,25 q 0.25,0.25 0.5,0.5 0.25,0.25 0.5,0.25 0.25,0 0.375,-0.375 Q 70,25 70.125,24.625 70.25,24.25 70.5,24 L 70.75,23.75 71,24 q 0.25,0.25 0.625,0.125 0.375,-0.125 0.5,-0.5 0.125,-0.375 0.5,-0.5 L 73,23 v 0.5 q 0,0.5 0,1 0,0.5 0.125,0.875 0.125,0.375 0.375,0.625 0.25,0.25 0.375,0.625 L 74,27 H 73.5 Q 73,27 73,27.5 73,28 73.5,28 H 74 l 0.125,0.375 0.125,0.375 -0.09375,-0.28125 -0.09375,-0.28125 0.0625,0.1875 q 0.0625,0.1875 0.15625,0.34375 L 74.375,28.875 74.32813,28.79687 74.28126,28.71874 74.015635,28.984365 Q 73.75,29.25 73.875,29.625 74,30 74.5,30 H 75 v 0.5 q 0,0.5 0.125,0.875 L 75.25,31.75 75.15625,31.46875 75.0625,31.1875 75.125,31.375 q 0.0625,0.1875 0.15625,0.34375 L 75.375,31.875 75.32813,31.79687 75.28126,31.71874 75.015635,31.984365 Q 74.75,32.25 74.875,32.625 75,33 75.5,33 H 76 v 0.5 Q 76,34 76.125,34.375 76.25,34.75 76.5,35 76.75,35.25 76.875,35.625 77,36 77,36.5 V 37 H 76.5 Q 76,37 76,37.5 76,38 76.5,38 H 77 v 0.5 q 0,0.5 0,1 0,0.5 0,1 V 41 H 76.5 Q 76,41 76,41.5 V 42 l -0.125,0.375 q -0.125,0.375 0.140625,0.640625 L 76.28125,43.28125 76.32812,43.20312 76.375,43.125 76.28125,43.28125 Q 76.1875,43.4375 76.125,43.625 L 76.0625,43.8125 76.15625,43.53125 76.25,43.25 76.125,43.625 76,44 H 75.5 Q 75,44 75,44.5 V 45 l -0.125,0.375 q -0.125,0.375 -0.5,0.5 -0.375,0.125 -0.5,0.5 -0.125,0.375 -0.5,0.5 -0.375,0.125 -0.5,0.5 -0.125,0.375 -0.5,0.5 Q 72,48 71.875,48.375 71.75,48.75 72,49 L 72.25,49.25 72,49.5 Q 71.75,49.75 71.375,49.875 71,50 70.625,50.125 70.25,50.25 70,50.5 69.75,50.75 69.5,51 69.25,51.25 69.125,51.625 L 69,52 V 51.625 51.25 51.5 q 0,0.25 0.125,0.375 L 69.25,52 69.1875,51.9375 69.125,51.875 68.5625,51.9375 Q 68,52 67.5,52 H 67 l 0.125,-0.375 Q 67.25,51.25 67.5,51 67.75,50.75 68,50.5 68.25,50.25 68.5,50 68.75,49.75 69,49.5 69.25,49.25 69.5,49 69.75,48.75 70,48.5 70.25,48.25 70.5,48 70.75,47.75 70.875,47.375 L 71,47 V 46.5 46 45.5 q 0,-0.5 0,-1 0,-0.5 0,-1 Q 71,43 70.875,42.625 70.75,42.25 70.5,42 70.25,41.75 70,41.5 L 69.75,41.25 70,41 Q 70.25,40.75 70.125,40.375 70,40 69.5,40 H 69 L 68.875,39.625 68.75,39.25 68.84375,39.53125 68.9375,39.8125 68.875,39.625 Q 68.8125,39.4375 68.71875,39.28125 L 68.625,39.125 l 0.04687,0.07813 0.04687,0.07813 0.265625,-0.265625 Q 69.25,38.75 69.125,38.375 69,38 68.5,38 H 68 L 67.875,37.625 Q 67.75,37.25 67.5,37 67.25,36.75 67,36.5 q -0.25,-0.25 -0.5,-0.25 -0.25,0 -0.375,0.375 L 66,37 h -0.5 q -0.5,0 -0.625,0.375 -0.125,0.375 0.140625,0.640625 L 65.28125,38.28125 65.32812,38.20312 65.375,38.125 65.28125,38.28125 Q 65.1875,38.4375 65.125,38.625 L 65.0625,38.8125 65.15625,38.53125 65.25,38.25 65.125,38.625 Q 65,39 65,39.5 q 0,0.5 0,1 V 41 L 64.625,40.875 Q 64.25,40.75 64.125,40.375 64,40 63.5,40 H 63 L 62.875,39.625 Q 62.75,39.25 62.5,39 62.25,38.75 62.125,38.375 62,38 62,37.5 q 0,-0.5 0,-1 0,-0.5 0,-1 0,-0.5 0,-1 0,-0.5 0,-1 0,-0.5 0,-1 Q 62,32 61.875,31.625 61.75,31.25 61.5,31.25 61.25,31.25 61,31.5 60.75,31.75 60.375,31.875 60,32 59.625,32.125 59.25,32.25 59,32.5 58.75,32.75 58.5,33 58.25,33.25 58,33.5 57.75,33.75 57.375,33.875 L 57,34 V 33.5 33 h -0.5 q -0.5,0 -0.625,0.375 -0.125,0.375 -0.5,0.5 Q 55,34 55,34.5 55,35 55.5,35 H 56 l -0.125,0.375 Q 55.75,35.75 55.5,36 55.25,36.25 55,36.5 54.75,36.75 54.5,37 54.25,37.25 54.125,37.625 L 54,38 53.875,38.375 Q 53.75,38.75 53.5,39 53.25,39.25 53.125,39.625 53,40 53,40.5 q 0,0.5 0,1 0,0.5 0,1 0,0.5 0,1 0,0.5 0,1 0,0.5 0.125,0.875 L 53.25,45.75 53.15625,45.46875 53.0625,45.1875 53.125,45.375 q 0.0625,0.1875 0.15625,0.34375 L 53.375,45.875 53.32813,45.79687 53.28126,45.71874 53.015635,45.984365 Q 52.75,46.25 52.875,46.625 53,47 53.375,47.125 53.75,47.25 54,47 L 54.25,46.75 54.5,47 q 0.25,0.25 0.5,0.5 0.25,0.25 0.5,0.5 0.25,0.25 0.375,0.625 L 56,49 56.125,49.375 Q 56.25,49.75 56.5,50 q 0.25,0.25 0.5,0.5 0.25,0.25 0.5,0.5 0.25,0.25 0.375,0.625 L 58,52 H 57.5 Q 57,52 56.4375,51.9375 L 55.875,51.875 55.8125,51.9375 55.75,52 55.875,51.875 Q 56,51.75 56,51.5 V 51.25 51.625 52 L 55.875,51.625 Q 55.75,51.25 55.5,51 55.25,50.75 55,50.5 L 54.75,50.25 55,50 q 0.25,-0.25 0.125,-0.625 L 55,49 54.875,48.625 q -0.125,-0.375 -0.5,-0.5 L 54,48 53.625,47.875 Q 53.25,47.75 53,48 L 52.75,48.25 52.5,48 Q 52.25,47.75 52,47.5 51.75,47.25 51.5,47 51.25,46.75 51,46.5 50.75,46.25 50.5,46 50.25,45.75 50,45.5 L 49.75,45.25 50,45 Q 50.25,44.75 50.125,44.375 50,44 49.625,43.875 49.25,43.75 49.125,43.375 49,43 48.5,43 H 48 V 42.5 Q 48,42 47.875,41.625 L 47.75,41.25 47.84375,41.53125 47.9375,41.8125 47.875,41.625 Q 47.8125,41.4375 47.71875,41.28125 L 47.625,41.125 l 0.04687,0.07813 0.04687,0.07813 0.265625,-0.265625 Q 48.25,40.75 48.125,40.375 L 48,40 V 39.5 Q 48,39 47.5,39 H 47 v -0.5 q 0,-0.5 0,-1 V 37 h 0.5 Q 48,37 48,36.5 48,36 47.5,36 H 47 V 35.5 Q 47,35 47.125,34.625 47.25,34.25 47.5,34 47.75,33.75 47.875,33.375 48,33 48,32.5 V 32 h 0.5 Q 49,32 49.125,31.625 49.25,31.25 48.984375,30.984375 L 48.71875,30.71875 48.671875,30.796875 48.625,30.875 48.71875,30.71875 Q 48.8125,30.5625 48.875,30.375 L 48.9375,30.1875 48.84375,30.46875 48.75,30.75 48.875,30.375 Q 49,30 49.125,29.625 49.25,29.25 49.5,29 L 49.75,28.75 50,29 q 0.25,0.25 0.625,0.125 Q 51,29 51.125,28.625 51.25,28.25 50.984375,27.984375 L 50.71875,27.71875 50.671875,27.796875 50.625,27.875 50.71875,27.71875 Q 50.8125,27.5625 50.875,27.375 L 50.9375,27.1875 50.84375,27.46875 50.75,27.75 50.875,27.375 51,27 h 0.5 q 0.5,0 0.625,-0.375 0.125,-0.375 0.5,-0.5 0.375,-0.125 0.5,-0.5 0.125,-0.375 0.5,-0.5 0.375,-0.125 0.5,-0.5 0.125,-0.375 0.5,-0.5 0.375,-0.125 0.5,-0.5 0.125,-0.375 0.5,-0.5 Q 56,23 56,22.5 V 22 L 56.375,21.875 56.75,21.75 56.46875,21.84375 56.1875,21.9375 56.375,21.875 q 0.1875,-0.0625 0.34375,-0.15625 L 56.875,21.625 l -0.07813,0.04687 -0.07813,0.04687 0.265625,0.265625 Q 57.25,22.25 57.625,22.125 58,22 58.125,21.625 58.25,21.25 58,21 L 57.75,20.75 58,20.5 Q 58.25,20.25 58.625,20.125 59,20 59.375,19.875 L 59.75,19.75 59.46875,19.84375 59.1875,19.9375 59.375,19.875 q 0.1875,-0.0625 0.34375,-0.15625 L 59.875,19.625 l -0.07813,0.04687 -0.07813,0.04687 0.265625,0.265625 Q 60.25,20.25 60.625,20.125 61,20 61.125,19.625 61.25,19.25 61.625,19.125 62,19 62.5,19 q 0.5,0 0.625,-0.375 0.125,-0.375 0.5,-0.5 Q 64,18 64.5,18 65,18 65,17.5 M 57.9375,20.5625 57.75,20.75 57.6875,20.8125 57.625,20.875 57.75,20.75 Q 57.875,20.625 58,20.5 l 0.125,-0.125 -0.1875,0.1875 m -8.125,8.125 L 49.75,28.75 49.5625,28.9375 49.375,29.125 49.5,29 q 0.125,-0.125 0.25,-0.25 l 0.125,-0.125 -0.0625,0.0625 m -0.125,16.5 L 49.75,45.25 49.9375,45.4375 50.125,45.625 50,45.5 q -0.125,-0.125 -0.25,-0.25 l -0.125,-0.125 0.0625,0.0625 m 2.875,2.875 L 52.75,48.25 52.8125,48.3125 52.875,48.375 52.75,48.25 Q 52.625,48.125 52.5,48 l -0.125,-0.125 0.1875,0.1875 m 2.125,2.125 L 54.75,50.25 54.9375,50.4375 55.125,50.625 55,50.5 q -0.125,-0.125 -0.25,-0.25 l -0.125,-0.125 0.0625,0.0625 M 57.625,52 H 58 58.125 58.25 58 q -0.25,0 -0.5,0 h -0.25 0.375 M 54.4375,46.9375 54.25,46.75 54.1875,46.6875 54.125,46.625 54.25,46.75 q 0.125,0.125 0.25,0.25 l 0.125,0.125 -0.1875,-0.1875 M 57,32.5 V 33 l 0.375,-0.125 q 0.375,-0.125 0.5,-0.5 Q 58,32 57.5,32 57,32 57,32.5 M 69.6875,41.1875 69.75,41.25 69.9375,41.4375 70.125,41.625 70,41.5 q -0.125,-0.125 -0.25,-0.25 l -0.125,-0.125 0.0625,0.0625 M 66.875,52 H 67 67.375 67.75 67.5 q -0.25,0 -0.5,0 h -0.25 0.125 M 72.0625,49.4375 72.25,49.25 72.3125,49.1875 72.375,49.125 72.25,49.25 Q 72.125,49.375 72,49.5 l -0.125,0.125 0.1875,-0.1875 m -1.25,-25.75 L 70.75,23.75 70.5625,23.9375 70.375,24.125 70.5,24 q 0.125,-0.125 0.25,-0.25 l 0.125,-0.125 -0.0625,0.0625"
         id="path4205"
         inkscape:connector-curvature="0" />
      <path
         style="fill:#ff744c;fill-opacity:1"
         d="m 66.125,17.625 q 0.125,-0.375 0.5,-0.5 L 67,17 V 17.5 18 H 66.5 Q 66,18 66.125,17.625"
         id="path4207"
         inkscape:connector-curvature="0" />
      <path
         style="fill:#ff754b;fill-opacity:1"
         d="m 60,19.5 q 0.25,-0.25 0.5,-0.5 l 0.25,-0.25 0.28125,0.28125 0.28125,0.28125 0.0625,-0.0625 0.0625,-0.0625 -0.125,0.125 q -0.125,0.125 -0.1875,0.3125 L 61.0625,19.8125 61.15625,19.53125 61.25,19.25 61.125,19.625 Q 61,20 60.625,20.125 60.25,20.25 59.984375,19.984375 l -0.265625,-0.265625 -0.07813,0.04687 -0.07813,0.04687 0.15625,-0.09375 Q 59.875,19.625 60,19.5 L 60.125,19.375 59.9375,19.5625 59.75,19.75 60,19.5 M 60.8125,18.6875 60.75,18.75 60.5625,18.9375 60.375,19.125 60.5,19 q 0.125,-0.125 0.25,-0.25 l 0.125,-0.125 -0.0625,0.0625"
         id="path4209"
         inkscape:connector-curvature="0" />
      <path
         style="fill:#ff744c;fill-opacity:1"
         d="M 66,20.5 Q 66,20 66.5,20 H 67 V 20.5 21 H 66.5 Q 66,21 66,20.5"
         id="path4211"
         inkscape:connector-curvature="0" />
      <path
         style="fill:#ff744c;fill-opacity:1"
         d="M 57,21.5 Q 57.25,21.25 57.5,21 L 57.75,20.75 58,21 q 0.25,0.25 0.125,0.625 Q 58,22 57.625,22.125 57.25,22.25 56.984375,21.984375 l -0.265625,-0.265625 -0.07813,0.04687 -0.07813,0.04687 0.15625,-0.09375 Q 56.875,21.625 57,21.5 L 57.125,21.375 56.9375,21.5625 56.75,21.75 57,21.5 M 57.8125,20.6875 57.75,20.75 57.5625,20.9375 57.375,21.125 57.5,21 q 0.125,-0.125 0.25,-0.25 l 0.125,-0.125 -0.0625,0.0625"
         id="path4213"
         inkscape:connector-curvature="0" />
      <path
         style="fill:#ff744c;fill-opacity:1"
         d="m 55,22.5 q 0.25,-0.25 0.625,-0.375 L 56,22 v 0.5 q 0,0.5 -0.375,0.625 L 55.25,23.25 55.53125,23.15625 55.8125,23.0625 55.625,23.125 q -0.1875,0.0625 -0.3125,0.1875 l -0.125,0.125 L 55.25,23.375 55.3125,23.3125 55.03125,23.03125 54.75,22.75 55,22.5 M 54.9375,22.5625 54.75,22.75 54.6875,22.8125 54.625,22.875 54.75,22.75 Q 54.875,22.625 55,22.5 l 0.125,-0.125 -0.1875,0.1875"
         id="path4215"
         inkscape:connector-curvature="0" />
      <path
         style="fill:#ff754b;fill-opacity:1"
         d="m 72,22.5 q 0.25,-0.25 0.5,-0.25 0.25,0 0.375,0.375 L 73,23 72.625,23.125 q -0.375,0.125 -0.5,0.5 Q 72,24 71.625,24.125 71.25,24.25 71,24 L 70.75,23.75 71,23.5 Q 71.25,23.25 71.5,23 71.75,22.75 72,22.5 M 70.9375,23.5625 70.75,23.75 70.6875,23.8125 70.625,23.875 70.75,23.75 Q 70.875,23.625 71,23.5 l 0.125,-0.125 -0.1875,0.1875"
         id="path4217"
         inkscape:connector-curvature="0" />
      <path
         style="fill:#ff754b;fill-opacity:1"
         d="m 54,23.5 q 0.25,-0.25 0.5,-0.5 l 0.25,-0.25 0.28125,0.28125 0.28125,0.28125 0.0625,-0.0625 0.0625,-0.0625 -0.125,0.125 q -0.125,0.125 -0.1875,0.3125 L 55.0625,23.8125 55.15625,23.53125 55.25,23.25 55.125,23.625 q -0.125,0.375 -0.5,0.5 -0.375,0.125 -0.5,0.5 -0.125,0.375 -0.5,0.5 -0.375,0.125 -0.5,0.5 -0.125,0.375 -0.5,0.5 -0.375,0.125 -0.5,0.5 Q 52,27 51.5,27 H 51 l 0.125,-0.375 Q 51.25,26.25 51.5,26 51.75,25.75 52,25.5 52.25,25.25 52.5,25 52.75,24.75 53,24.5 53.25,24.25 53.5,24 53.75,23.75 54,23.5 M 54.8125,22.6875 54.75,22.75 54.5625,22.9375 54.375,23.125 54.5,23 q 0.125,-0.125 0.25,-0.25 l 0.125,-0.125 -0.0625,0.0625"
         id="path4219"
         inkscape:connector-curvature="0" />
      <path
         style="fill:#ff744b;fill-opacity:1"
         d="M 66.875,23.625 Q 66.75,23.25 67.015625,22.984375 l 0.265625,-0.265625 -0.04687,-0.07813 -0.04687,-0.07813 0.09375,0.15625 Q 67.375,22.875 67.5,23 L 67.625,23.125 67.4375,22.9375 67.25,22.75 67.5,23 q 0.25,0.25 0.375,0.625 L 68,24 H 67.5 67 l -0.125,-0.375"
         id="path4221"
         inkscape:connector-curvature="0" />
      <path
         style="fill:#ff744c;fill-opacity:1"
         d="M 67,24.5 V 24 h 0.5 0.5 l 0.125,0.375 0.125,0.375 -0.09375,-0.28125 -0.09375,-0.28125 0.0625,0.1875 q 0.0625,0.1875 0.15625,0.34375 L 68.375,24.875 68.32813,24.79687 68.28126,24.71874 68.015635,24.984365 Q 67.75,25.25 67.375,25.125 67,25 67,24.5"
         id="path4223"
         inkscape:connector-curvature="0" />
      <path
         style="fill:#ff754b;fill-opacity:1"
         d="M 73,27.5 Q 73,27 73.5,27 H 74 V 27.5 28 H 73.5 Q 73,28 73,27.5"
         id="path4225"
         inkscape:connector-curvature="0" />
      <path
         style="fill:#ff744c;fill-opacity:1"
         d="M 50,28.5 Q 50.25,28.25 50.5,28 L 50.75,27.75 50.5625,27.9375 50.375,28.125 50.5,28 q 0.125,-0.125 0.21875,-0.28125 l 0.09375,-0.15625 -0.04687,0.07813 -0.04687,0.07813 0.265625,0.265625 Q 51.25,28.25 51.125,28.625 51,29 50.625,29.125 50.25,29.25 50,29 L 49.75,28.75 50,28.5 M 49.9375,28.5625 49.75,28.75 49.6875,28.8125 49.625,28.875 49.75,28.75 Q 49.875,28.625 50,28.5 l 0.125,-0.125 -0.1875,0.1875"
         id="path4227"
         inkscape:connector-curvature="0" />
      <path
         style="fill:#ff744b;fill-opacity:1"
         d="M 73.875,29.625 Q 73.75,29.25 74.015625,28.984375 l 0.265625,-0.265625 -0.04687,-0.07813 -0.04687,-0.07813 0.09375,0.15625 Q 74.375,28.875 74.5,29 L 74.625,29.125 74.4375,28.9375 74.25,28.75 74.5,29 q 0.25,0.25 0.375,0.625 L 75,30 H 74.5 Q 74,30 73.875,29.625"
         id="path4229"
         inkscape:connector-curvature="0" />
      <path
         style="fill:#ff744b;fill-opacity:1"
         d="M 48.125,31.625 Q 48.25,31.25 48.5,31 L 48.75,30.75 48.5625,30.9375 48.375,31.125 48.5,31 q 0.125,-0.125 0.21875,-0.28125 l 0.09375,-0.15625 -0.04687,0.07813 -0.04687,0.07813 0.265625,0.265625 Q 49.25,31.25 49.125,31.625 49,32 48.5,32 H 48 l 0.125,-0.375"
         id="path4231"
         inkscape:connector-curvature="0" />
      <path
         style="fill:#ffb5a4;fill-opacity:1"
         d="m 61,31.5 q 0.25,-0.25 0.5,-0.25 0.25,0 0.375,0.375 Q 62,32 62,32.5 q 0,0.5 0,1 0,0.5 0,1 0,0.5 0,1 0,0.5 0,1 0,0.5 0,1 0,0.5 0.125,0.875 0.125,0.375 0.375,0.625 0.25,0.25 0.375,0.625 L 63,40 63.125,40.375 Q 63.25,40.75 63.5,41 q 0.25,0.25 0.5,0.5 0.25,0.25 0.5,0.25 0.25,0 0.375,-0.375 L 65,41 V 40.5 Q 65,40 65,39.5 65,39 65.125,38.625 65.25,38.25 65.5,38 65.75,37.75 65.875,37.375 L 66,37 66.125,36.625 Q 66.25,36.25 66.5,36.25 q 0.25,0 0.5,0.25 0.25,0.25 0.5,0.5 0.25,0.25 0.375,0.625 L 68,38 68.125,38.375 Q 68.25,38.75 68.5,39 q 0.25,0.25 0.375,0.625 L 69,40 69.125,40.375 Q 69.25,40.75 69.5,41 q 0.25,0.25 0.5,0.5 0.25,0.25 0.5,0.5 0.25,0.25 0.375,0.625 Q 71,43 71,43.5 q 0,0.5 0,1 0,0.5 0,1 V 46 H 70.5 Q 70,46 70,46.5 70,47 70.5,47 H 71 l -0.125,0.375 Q 70.75,47.75 70.5,48 70.25,48.25 70,48.5 69.75,48.75 69.5,49 69.25,49.25 69,49.5 68.75,49.75 68.5,50 68.25,50.25 68,50.5 67.75,50.75 67.5,51 67.25,51.25 67.125,51.625 L 67,52 h -0.5 q -0.5,0 -1,0 -0.5,0 -1,0 -0.5,0 -1,0 -0.5,0 -1,0 -0.5,0 -1,0 -0.5,0 -1,0 -0.5,0 -1,0 -0.5,0 -1,0 H 58 L 57.875,51.625 Q 57.75,51.25 57.5,51 57.25,50.75 57,50.5 L 56.75,50.25 57,50 Q 57.25,49.75 57.125,49.375 57,49 56.5,49 H 56 L 55.875,48.625 Q 55.75,48.25 55.5,48 55.25,47.75 55,47.5 L 54.75,47.25 55,47 Q 55.25,46.75 55.125,46.375 55,46 54.625,45.875 54.25,45.75 54,46 L 53.75,46.25 53.5,46 Q 53.25,45.75 53.125,45.375 53,45 53,44.5 q 0,-0.5 0,-1 0,-0.5 0,-1 0,-0.5 0,-1 0,-0.5 0,-1 Q 53,40 53.125,39.625 53.25,39.25 53.5,39 53.75,38.75 53.875,38.375 L 54,38 h 0.5 Q 55,38 55.125,37.625 55.25,37.25 55,37 L 54.75,36.75 55,36.5 q 0.25,-0.25 0.5,-0.5 0.25,-0.25 0.375,-0.625 L 56,35 h 0.5 Q 57,35 57,34.5 V 34 l 0.375,-0.125 Q 57.75,33.75 58,33.5 58.25,33.25 58.5,33 58.75,32.75 59,32.5 59.25,32.25 59.625,32.125 60,32 60.375,31.875 60.75,31.75 61,31.5 M 54.9375,36.5625 54.75,36.75 54.6875,36.8125 54.625,36.875 54.75,36.75 Q 54.875,36.625 55,36.5 l 0.125,-0.125 -0.1875,0.1875 m -1.375,9.5 L 53.75,46.25 53.8125,46.3125 53.875,46.375 53.75,46.25 Q 53.625,46.125 53.5,46 l -0.125,-0.125 0.1875,0.1875 m 1.125,1.125 L 54.75,47.25 54.9375,47.4375 55.125,47.625 55,47.5 q -0.125,-0.125 -0.25,-0.25 l -0.125,-0.125 0.0625,0.0625 m 2,3 L 56.75,50.25 56.9375,50.4375 57.125,50.625 57,50.5 q -0.125,-0.125 -0.25,-0.25 l -0.125,-0.125 0.0625,0.0625 M 57.875,52 H 58 58.375 58.75 58.5 q -0.25,0 -0.5,0 h -0.25 0.125 m 8.75,0 H 67 67.125 67.25 67 q -0.25,0 -0.5,0 h -0.25 0.375"
         id="path4233"
         inkscape:connector-curvature="0" />
      <path
         style="fill:#ff7951;fill-opacity:1"
         d="m 57,32.5 q 0,-0.5 0.5,-0.5 0.5,0 0.375,0.375 -0.125,0.375 -0.5,0.5 L 57,33 v -0.5"
         id="path4235"
         inkscape:connector-curvature="0" />
      <path
         style="fill:#ff754b;fill-opacity:1"
         d="M 74.875,32.625 Q 74.75,32.25 75.015625,31.984375 l 0.265625,-0.265625 -0.04687,-0.07813 -0.04687,-0.07813 0.09375,0.15625 Q 75.375,31.875 75.5,32 L 75.625,32.125 75.4375,31.9375 75.25,31.75 75.5,32 q 0.25,0.25 0.375,0.625 L 76,33 H 75.5 Q 75,33 74.875,32.625"
         id="path4237"
         inkscape:connector-curvature="0" />
      <path
         style="fill:#ff7951;fill-opacity:1"
         d="M 55.875,33.375 Q 56,33 56.5,33 H 57 v 0.5 0.5 l -0.375,0.125 q -0.375,0.125 -0.5,0.5 L 56,35 H 55.5 Q 55,35 55,34.5 q 0,-0.5 0.375,-0.625 0.375,-0.125 0.5,-0.5"
         id="path4239"
         inkscape:connector-curvature="0" />
      <path
         style="fill:#ffb09e;fill-opacity:1"
         d="m 56.125,34.625 q 0.125,-0.375 0.5,-0.5 L 57,34 v 0.5 Q 57,35 56.5,35 H 56 l 0.125,-0.375"
         id="path4241"
         inkscape:connector-curvature="0" />
      <path
         style="fill:#ff754b;fill-opacity:1"
         d="M 47,36.5 V 36 h 0.5 Q 48,36 48,36.5 48,37 47.5,37 H 47 v -0.5"
         id="path4243"
         inkscape:connector-curvature="0" />
      <path
         style="fill:#ffb19e;fill-opacity:1"
         d="M 54.125,37.625 Q 54.25,37.25 54.5,37 L 54.75,36.75 55,37 q 0.25,0.25 0.125,0.625 Q 55,38 54.5,38 H 54 l 0.125,-0.375 M 54.8125,36.6875 54.75,36.75 54.5625,36.9375 54.375,37.125 54.5,37 q 0.125,-0.125 0.25,-0.25 l 0.125,-0.125 -0.0625,0.0625"
         id="path4245"
         inkscape:connector-curvature="0" />
      <path
         style="fill:#ff7951;fill-opacity:1"
         d="M 64.875,37.375 Q 65,37 65.5,37 H 66 l -0.125,0.375 Q 65.75,37.75 65.5,38 L 65.25,38.25 65.4375,38.0625 65.625,37.875 65.5,38 q -0.125,0.125 -0.21875,0.28125 l -0.09375,0.15625 0.04687,-0.07813 0.04687,-0.07813 -0.265625,-0.265625 Q 64.75,37.75 64.875,37.375"
         id="path4247"
         inkscape:connector-curvature="0" />
      <path
         style="fill:#ff754b;fill-opacity:1"
         d="M 76,37.5 Q 76,37 76.5,37 H 77 V 37.5 38 H 76.5 Q 76,38 76,37.5"
         id="path4249"
         inkscape:connector-curvature="0" />
      <path
         style="fill:#ff7951;fill-opacity:1"
         d="M 68.125,38.375 68,38 h 0.5 q 0.5,0 0.625,0.375 0.125,0.375 -0.140625,0.640625 l -0.265625,0.265625 0.04687,0.07813 0.04687,0.07813 -0.09375,-0.15625 Q 68.625,39.125 68.5,39 L 68.375,38.875 68.5625,39.0625 68.75,39.25 68.5,39 q -0.25,-0.25 -0.375,-0.625"
         id="path4251"
         inkscape:connector-curvature="0" />
      <path
         style="fill:#ff754b;fill-opacity:1"
         d="M 47,39.5 V 39 h 0.5 Q 48,39 48,39.5 V 40 H 47.5 47 v -0.5"
         id="path4253"
         inkscape:connector-curvature="0" />
      <path
         style="fill:#ff744b;fill-opacity:1"
         d="M 47.125,40.375 47,40 h 0.5 0.5 l 0.125,0.375 q 0.125,0.375 -0.140625,0.640625 l -0.265625,0.265625 0.04687,0.07813 0.04687,0.07813 -0.09375,-0.15625 Q 47.625,41.125 47.5,41 L 47.375,40.875 47.5625,41.0625 47.75,41.25 47.5,41 q -0.25,-0.25 -0.375,-0.625"
         id="path4255"
         inkscape:connector-curvature="0" />
      <path
         style="fill:#ff7951;fill-opacity:1"
         d="M 63.125,40.375 63,40 h 0.5 q 0.5,0 0.625,0.375 L 64.25,40.75 64.15625,40.46875 64.0625,40.1875 64.125,40.375 q 0.0625,0.1875 0.1875,0.3125 l 0.125,0.125 L 64.375,40.75 64.3125,40.6875 64.03125,40.96875 63.75,41.25 63.5,41 Q 63.25,40.75 63.125,40.375 M 63.5625,41.0625 63.75,41.25 63.8125,41.3125 63.875,41.375 63.75,41.25 Q 63.625,41.125 63.5,41 l -0.125,-0.125 0.1875,0.1875"
         id="path4257"
         inkscape:connector-curvature="0" />
      <path
         style="fill:#ff7d57;fill-opacity:1"
         d="M 69.125,40.375 69,40 h 0.5 Q 70,40 70.125,40.375 70.25,40.75 70,41 L 69.75,41.25 69.5,41 Q 69.25,40.75 69.125,40.375 M 69.5625,41.0625 69.75,41.25 69.8125,41.3125 69.875,41.375 69.75,41.25 Q 69.625,41.125 69.5,41 l -0.125,-0.125 0.1875,0.1875"
         id="path4259"
         inkscape:connector-curvature="0" />
      <path
         style="fill:#ff7d57;fill-opacity:1"
         d="M 64,41.5 63.75,41.25 64.03125,40.96875 64.3125,40.6875 64.25,40.625 l -0.0625,-0.0625 0.125,0.125 q 0.125,0.125 0.3125,0.1875 L 64.8125,40.9375 64.53125,40.84375 64.25,40.75 64.625,40.875 65,41 64.875,41.375 Q 64.75,41.75 64.5,41.75 64.25,41.75 64,41.5 M 63.6875,41.1875 63.75,41.25 63.9375,41.4375 64.125,41.625 64,41.5 q -0.125,-0.125 -0.25,-0.25 l -0.125,-0.125 0.0625,0.0625"
         id="path4261"
         inkscape:connector-curvature="0" />
      <path
         style="fill:#ff744c;fill-opacity:1"
         d="M 76,41.5 Q 76,41 76.5,41 H 77 V 41.5 42 H 76.5 76 v -0.5"
         id="path4263"
         inkscape:connector-curvature="0" />
      <path
         style="fill:#ff744b;fill-opacity:1"
         d="M 75.875,42.375 76,42 h 0.5 0.5 l -0.125,0.375 Q 76.75,42.75 76.5,43 L 76.25,43.25 76.4375,43.0625 76.625,42.875 76.5,43 q -0.125,0.125 -0.21875,0.28125 l -0.09375,0.15625 0.04687,-0.07813 0.04687,-0.07813 -0.265625,-0.265625 Q 75.75,42.75 75.875,42.375"
         id="path4265"
         inkscape:connector-curvature="0" />
      <path
         style="fill:#ff744c;fill-opacity:1"
         d="M 48.125,43.375 48,43 h 0.5 q 0.5,0 0.625,0.375 L 49.25,43.75 49.15625,43.46875 49.0625,43.1875 49.125,43.375 q 0.0625,0.1875 0.1875,0.3125 l 0.125,0.125 L 49.375,43.75 49.3125,43.6875 49.03125,43.96875 48.75,44.25 48.5,44 Q 48.25,43.75 48.125,43.375 M 48.5625,44.0625 48.75,44.25 48.8125,44.3125 48.875,44.375 48.75,44.25 Q 48.625,44.125 48.5,44 l -0.125,-0.125 0.1875,0.1875"
         id="path4267"
         inkscape:connector-curvature="0" />
      <path
         style="fill:#ff744b;fill-opacity:1"
         d="M 49,44.5 48.75,44.25 49.03125,43.96875 49.3125,43.6875 49.25,43.625 l -0.0625,-0.0625 0.125,0.125 q 0.125,0.125 0.3125,0.1875 L 49.8125,43.9375 49.53125,43.84375 49.25,43.75 49.625,43.875 Q 50,44 50.125,44.375 50.25,44.75 50,45 L 49.75,45.25 49.5,45 Q 49.25,44.75 49,44.5 M 49.5625,45.0625 49.75,45.25 49.8125,45.3125 49.875,45.375 49.75,45.25 Q 49.625,45.125 49.5,45 l -0.125,-0.125 0.1875,0.1875 M 48.6875,44.1875 48.75,44.25 48.9375,44.4375 49.125,44.625 49,44.5 q -0.125,-0.125 -0.25,-0.25 l -0.125,-0.125 0.0625,0.0625"
         id="path4269"
         inkscape:connector-curvature="0" />
      <path
         style="fill:#ff754b;fill-opacity:1"
         d="M 75,44.5 Q 75,44 75.5,44 H 76 V 44.5 45 H 75.5 75 v -0.5"
         id="path4271"
         inkscape:connector-curvature="0" />
      <path
         style="fill:#ff744c;fill-opacity:1"
         d="M 74.875,45.375 75,45 h 0.5 0.5 l -0.125,0.375 Q 75.75,45.75 75.5,46 75.25,46.25 75,46.5 74.75,46.75 74.5,47 L 74.25,47.25 73.96875,46.96875 73.6875,46.6875 73.625,46.75 l -0.0625,0.0625 0.125,-0.125 q 0.125,-0.125 0.1875,-0.3125 L 73.9375,46.1875 73.84375,46.46875 73.75,46.75 73.875,46.375 q 0.125,-0.375 0.5,-0.5 0.375,-0.125 0.5,-0.5 M 74.1875,47.3125 74.25,47.25 74.4375,47.0625 74.625,46.875 74.5,47 q -0.125,0.125 -0.25,0.25 l -0.125,0.125 0.0625,-0.0625"
         id="path4273"
         inkscape:connector-curvature="0" />
      <path
         style="fill:#ff7951;fill-opacity:1"
         d="M 52.875,46.625 Q 52.75,46.25 53.015625,45.984375 l 0.265625,-0.265625 -0.04687,-0.07813 -0.04687,-0.07813 0.09375,0.15625 Q 53.375,45.875 53.5,46 L 53.625,46.125 53.4375,45.9375 53.25,45.75 53.5,46 q 0.25,0.25 0.5,0.5 L 54.25,46.75 54,47 Q 53.75,47.25 53.375,47.125 53,47 52.875,46.625 M 54.3125,46.8125 54.25,46.75 54.0625,46.5625 53.875,46.375 54,46.5 q 0.125,0.125 0.25,0.25 l 0.125,0.125 -0.0625,-0.0625"
         id="path4275"
         inkscape:connector-curvature="0" />
      <path
         style="fill:#ffb19e;fill-opacity:1"
         d="M 54,46.5 53.75,46.25 54,46 Q 54.25,45.75 54.625,45.875 55,46 55.125,46.375 55.25,46.75 55,47 L 54.75,47.25 54.5,47 Q 54.25,46.75 54,46.5 M 54.5625,47.0625 54.75,47.25 54.8125,47.3125 54.875,47.375 54.75,47.25 Q 54.625,47.125 54.5,47 l -0.125,-0.125 0.1875,0.1875 M 53.6875,46.1875 53.75,46.25 53.9375,46.4375 54.125,46.625 54,46.5 q -0.125,-0.125 -0.25,-0.25 l -0.125,-0.125 0.0625,0.0625"
         id="path4277"
         inkscape:connector-curvature="0" />
      <path
         style="fill:#ffb19e;fill-opacity:1"
         d="M 70,46.5 Q 70,46 70.5,46 H 71 V 46.5 47 H 70.5 Q 70,47 70,46.5"
         id="path4279"
         inkscape:connector-curvature="0" />
      <path
         style="fill:#ff754b;fill-opacity:1"
         d="M 72.875,47.375 Q 73,47 73.375,46.875 L 73.75,46.75 73.46875,46.84375 73.1875,46.9375 73.375,46.875 q 0.1875,-0.0625 0.3125,-0.1875 l 0.125,-0.125 -0.0625,0.0625 -0.0625,0.0625 0.28125,0.28125 L 74.25,47.25 74,47.5 Q 73.75,47.75 73.5,48 73.25,48.25 73,48.5 72.75,48.75 72.5,49 L 72.25,49.25 72,49 q -0.25,-0.25 -0.125,-0.625 0.125,-0.375 0.5,-0.5 0.375,-0.125 0.5,-0.5 M 72.1875,49.3125 72.25,49.25 72.4375,49.0625 72.625,48.875 72.5,49 q -0.125,0.125 -0.25,0.25 l -0.125,0.125 0.0625,-0.0625 m 1.875,-1.875 L 74.25,47.25 74.3125,47.1875 74.375,47.125 74.25,47.25 Q 74.125,47.375 74,47.5 l -0.125,0.125 0.1875,-0.1875"
         id="path4281"
         inkscape:connector-curvature="0" />
      <path
         style="fill:#ff744b;fill-opacity:1"
         d="M 53,48.5 52.75,48.25 53,48 q 0.25,-0.25 0.625,-0.125 L 54,48 l 0.125,0.375 q 0.125,0.375 0.5,0.5 L 55,49 55.125,49.375 Q 55.25,49.75 55,50 L 54.75,50.25 54.5,50 Q 54.25,49.75 54,49.5 53.75,49.25 53.5,49 53.25,48.75 53,48.5 M 54.5625,50.0625 54.75,50.25 54.8125,50.3125 54.875,50.375 54.75,50.25 Q 54.625,50.125 54.5,50 l -0.125,-0.125 0.1875,0.1875 M 52.6875,48.1875 52.75,48.25 52.9375,48.4375 53.125,48.625 53,48.5 q -0.125,-0.125 -0.25,-0.25 l -0.125,-0.125 0.0625,0.0625"
         id="path4283"
         inkscape:connector-curvature="0" />
      <path
         style="fill:#ff7951;fill-opacity:1"
         d="M 54.125,48.375 54,48 l 0.375,0.125 q 0.375,0.125 0.5,0.5 L 55,49 54.625,48.875 q -0.375,-0.125 -0.5,-0.5"
         id="path4285"
         inkscape:connector-curvature="0" />
      <path
         style="fill:#ffb19e;fill-opacity:1"
         d="M 56.125,49.375 56,49 h 0.5 Q 57,49 57.125,49.375 57.25,49.75 57,50 L 56.75,50.25 56.5,50 Q 56.25,49.75 56.125,49.375 M 56.5625,50.0625 56.75,50.25 56.8125,50.3125 56.875,50.375 56.75,50.25 Q 56.625,50.125 56.5,50 l -0.125,-0.125 0.1875,0.1875"
         id="path4287"
         inkscape:connector-curvature="0" />
      <path
         style="fill:#8e675c;fill-opacity:1"
         d="m 51.125,52.625 q 0.125,-0.375 0.5,-0.5 Q 52,52 52.5,52 q 0.5,0 1,0 0.5,0 1,0 0.5,0 1,0 H 56 55.625 55.25 55.5 q 0.25,0 0.375,-0.125 L 56,51.75 55.9375,51.8125 55.875,51.875 56.4375,51.9375 Q 57,52 57.5,52 q 0.5,0 1,0 0.5,0 1,0 0.5,0 1,0 0.5,0 1,0 0.5,0 1,0 0.5,0 1,0 0.5,0 1,0 0.5,0 1,0 0.5,0 1,0 0.5,0 1,0 0.5,0 1.0625,-0.0625 L 69.125,51.875 69.0625,51.8125 69,51.75 69.125,51.875 Q 69.25,52 69.5,52 H 69.75 69.375 69 69.5 q 0.5,0 1,0 0.5,0 1,0 0.5,0 1,0 0.5,0 1,0 0.5,0 0.875,0.125 0.375,0.125 0.5,0.5 Q 75,53 75,53.5 q 0,0.5 0,1 0,0.5 -0.125,0.875 -0.125,0.375 -0.5,0.5 Q 74,56 73.5,56 q -0.5,0 -1,0 -0.5,0 -1,0 -0.5,0 -1,0 -0.5,0 -1,0 -0.5,0 -1,0 -0.5,0 -1,0 -0.5,0 -1,0 -0.5,0 -1,0 -0.5,0 -1,0 -0.5,0 -1,0 -0.5,0 -1,0 -0.5,0 -1,0 -0.5,0 -1,0 -0.5,0 -1,0 -0.5,0 -1,0 -0.5,0 -1,0 -0.5,0 -1,0 -0.5,0 -1,0 -0.5,0 -1,0 -0.5,0 -1,0 -0.5,0 -1,0 -0.5,0 -0.875,-0.125 -0.375,-0.125 -0.5,-0.5 Q 51,55 51,54.5 q 0,-0.5 0,-1 0,-0.5 0.125,-0.875"
         id="path4289"
         inkscape:connector-curvature="0" />
      <path
         style="fill:#ceb1a1;fill-opacity:1"
         d="M 53,56.5 V 56 h 0.5 q 0.5,0 1,0 0.5,0 1,0 0.5,0 1,0 0.5,0 1,0 0.5,0 1,0 0.5,0 1,0 0.5,0 1,0 0.5,0 1,0 0.5,0 1,0 0.5,0 1,0 0.5,0 1,0 0.5,0 1,0 0.5,0 1,0 0.5,0 1,0 0.5,0 1,0 0.5,0 1,0 0.5,0 1,0 0.5,0 1,0 0.5,0 1,0 H 73 v 0.5 q 0,0.5 0,1 0,0.5 0,1 0,0.5 0,1 0,0.5 0,1 V 61 h -0.5 q -0.5,0 -0.625,0.375 -0.125,0.375 0.140625,0.640625 L 72.28125,62.28125 72.32812,62.20312 72.375,62.125 72.28125,62.28125 Q 72.1875,62.4375 72.125,62.625 L 72.0625,62.8125 72.15625,62.53125 72.25,62.25 72.125,62.625 Q 72,63 72,63.5 q 0,0.5 0,1 0,0.5 0,1 0,0.5 -0.125,0.875 Q 71.75,66.75 71.5,67 71.25,67.25 71.125,67.625 71,68 71,68.5 q 0,0.5 -0.125,0.875 -0.125,0.375 -0.5,0.5 Q 70,70 69.625,70.125 69.25,70.25 69.125,70.625 69,71 69,71.5 69,72 68.875,72.375 68.75,72.75 68.5,73 68.25,73.25 68.125,73.625 68,74 68,74.5 68,75 67.875,75.375 67.75,75.75 67.5,76 67.25,76.25 67.125,76.625 67,77 67,77.5 q 0,0.5 0,1 0,0.5 0,1 0,0.5 0,1 0,0.5 0,1 0,0.5 0,1 0,0.5 0,1 0,0.5 0,1 0,0.5 0,1 0,0.5 0,1 0,0.5 0,1 0,0.5 0,1 0,0.5 0,1 0,0.5 0,1 0,0.5 0,1 0,0.5 0,1 0,0.5 0,1 0,0.5 0,1 0,0.5 0,1 0,0.5 0,1 0,0.5 0,1 0,0.5 0,1 0,0.5 0,1 0,0.5 0,1 0,0.5 0,1 0,0.5 0,1 0,0.5 0,1 0,0.5 0,1 0,0.5 0,1 0,0.5 0,1 0,0.5 0,1 0,0.5 0,1 0,0.5 -0.125,0.875 -0.125,0.375 -0.5,0.5 Q 66,110 65.5,110 q -0.5,0 -1,0 -0.5,0 -1,0 -0.5,0 -1,0 -0.5,0 -1,0 -0.5,0 -1,0 -0.5,0 -0.875,-0.125 -0.375,-0.125 -0.5,-0.5 Q 59,109 59,108.5 q 0,-0.5 0,-1 0,-0.5 0,-1 0,-0.5 0,-1 0,-0.5 0,-1 0,-0.5 0,-1 0,-0.5 0,-1 0,-0.5 0,-1 0,-0.5 0,-1 0,-0.5 0,-1 0,-0.5 0,-1 0,-0.5 0,-1 0,-0.5 0,-1 0,-0.5 0,-1 0,-0.5 0,-1 0,-0.5 0,-1 0,-0.5 0,-1 0,-0.5 0,-1 0,-0.5 0,-1 0,-0.5 0,-1 0,-0.5 0,-1 0,-0.5 0,-1 0,-0.5 0,-1 0,-0.5 0,-1 0,-0.5 0,-1 0,-0.5 0,-1 0,-0.5 0,-1 0,-0.5 0,-1 0,-0.5 0,-1 0,-0.5 0,-1 0,-0.5 0,-1 0,-0.5 0,-1 Q 59,77 58.875,76.625 58.75,76.25 58.5,76 58.25,75.75 58.125,75.375 58,75 58,74.5 58,74 57.875,73.625 57.75,73.25 57.5,73 57.25,72.75 57.125,72.375 57,72 57,71.5 57,71 56.875,70.625 56.75,70.25 56.375,70.125 56,70 55.625,69.875 55.25,69.75 55.125,69.375 55,69 55,68.5 55,68 54.875,67.625 54.75,67.25 54.5,67 54.25,66.75 54.125,66.375 54,66 54,65.5 q 0,-0.5 0,-1 0,-0.5 0,-1 0,-0.5 -0.125,-0.875 L 53.75,62.25 53.84375,62.53125 53.9375,62.8125 53.875,62.625 Q 53.8125,62.4375 53.71875,62.28125 L 53.625,62.125 l 0.04687,0.07813 0.04687,0.07813 0.265625,-0.265625 Q 54.25,61.75 54.125,61.375 54,61 53.5,61 H 53 v -0.5 q 0,-0.5 0,-1 0,-0.5 0,-1 0,-0.5 0,-1 0,-0.5 0,-1 M 73.125,56 H 73 72.625 72.25 72.5 q 0.25,0 0.5,0 h 0.25 -0.125 m -19.75,0 H 53 52.875 52.75 53 q 0.25,0 0.5,0 h 0.25 -0.375"
         id="path4291"
         inkscape:connector-curvature="0" />
      <path
         style="fill:#cdb1a1;fill-opacity:1"
         d="M 53.125,61.375 53,61 h 0.5 q 0.5,0 0.625,0.375 0.125,0.375 -0.140625,0.640625 l -0.265625,0.265625 0.04687,0.07813 0.04687,0.07813 -0.09375,-0.15625 Q 53.625,62.125 53.5,62 L 53.375,61.875 53.5625,62.0625 53.75,62.25 53.5,62 q -0.25,-0.25 -0.375,-0.625"
         id="path4293"
         inkscape:connector-curvature="0" />
      <path
         style="fill:#cdb1a1;fill-opacity:1"
         d="M 71.875,61.375 Q 72,61 72.5,61 H 73 l -0.125,0.375 Q 72.75,61.75 72.5,62 L 72.25,62.25 72.4375,62.0625 72.625,61.875 72.5,62 q -0.125,0.125 -0.21875,0.28125 l -0.09375,0.15625 0.04687,-0.07813 0.04687,-0.07813 -0.265625,-0.265625 Q 71.75,61.75 71.875,61.375"
         id="path4295"
         inkscape:connector-curvature="0" />
    </g>
    <text
       inkscape:transform-center-y="7.5761442"
       id="text4738"
       y="750.7179"
       x="1187.0894"
       style="font-style:normal;font-weight:normal;font-size:37.5px;line-height:1.25;font-family:sans-serif;letter-spacing:0px;word-spacing:0px;fill:#000000;fill-opacity:1;stroke:none;stroke-width:0.9375"
       xml:space="preserve"><tspan
         style="stroke-width:0.9375"
         y="750.7179"
         x="1187.0894"
         id="tspan4736"
         sodipodi:role="line">(f)</tspan></text>
  </g>
  <style
     id="style3780"
     type="text/css">
	.st0{fill:#CDB0A0;}
	.st1{fill:#FE754C;}
	.st2{fill:#8D675C;}
	.st3{fill:#FEB4A3;}
</style>
</svg>
